<?xml version="1.0" standalone="no"?>
<!DOCTYPE svg PUBLIC "-//W3C//DTD SVG 20010904//EN"
 "http://www.w3.org/TR/2001/REC-SVG-20010904/DTD/svg10.dtd">
<svg version="1.0" xmlns="http://www.w3.org/2000/svg"
 width="512.000000pt" height="512.000000pt" viewBox="0 0 512.000000 512.000000"
 preserveAspectRatio="xMidYMid meet">

<g transform="translate(0.000000,512.000000) scale(0.100000,-0.100000)"
stroke="none">
<path d="M406 5104 c-185 -45 -347 -208 -391 -396 -13 -55 -15 -343 -15 -2131
0 -1913 1 -2071 17 -2097 9 -16 27 -33 40 -39 17 -8 393 -11 1262 -11 l1238 0
5 -97 c8 -150 55 -231 170 -294 l63 -34 1045 0 1045 0 63 34 c70 38 100 69
140 145 l27 51 0 1365 0 1365 -34 63 c-37 69 -79 109 -151 144 l-45 23 -627 3
-628 3 0 424 0 425 375 0 c413 0 430 2 459 59 23 43 23 505 1 600 -45 190
-207 351 -397 396 -92 22 -3572 21 -3662 -1z m3078 -251 c-70 -117 -74 -165
-74 -980 l0 -672 -307 -3 c-305 -3 -309 -3 -358 -28 -64 -31 -124 -91 -155
-155 l-25 -50 -3 -1162 -2 -1163 -1175 0 -1175 0 2 2008 3 2007 28 60 c15 33
42 75 60 93 36 38 108 78 164 91 21 5 710 9 1545 10 l1507 1 -35 -57z m598 20
c69 -31 120 -84 157 -162 25 -53 26 -65 29 -248 l4 -193 -321 0 -321 0 0 190
c0 162 3 197 19 240 67 176 258 252 433 173z m763 -1899 c69 -33 65 58 65
-1374 0 -1156 -2 -1295 -16 -1325 -32 -68 24 -65 -1054 -65 -1078 0 -1022 -3
-1054 65 -14 30 -16 169 -16 1325 0 1154 2 1296 16 1325 32 68 -25 65 1052 65
867 0 978 -2 1007 -16z"/>
<path d="M710 4153 c-81 -30 -90 -157 -14 -192 18 -8 335 -11 1123 -11 1086 0
1099 0 1124 20 38 30 52 80 33 123 -29 71 46 67 -1163 66 -598 0 -1095 -3
-1103 -6z"/>
<path d="M703 3615 c-33 -14 -63 -59 -63 -95 0 -37 30 -81 65 -96 29 -12 203
-14 1111 -14 1193 0 1126 -4 1158 65 20 41 20 49 0 90 -32 69 35 65 -1161 65
-896 -1 -1083 -3 -1110 -15z"/>
<path d="M693 3078 c-57 -28 -67 -122 -17 -169 l26 -24 779 -3 c868 -3 826 -6
855 65 19 43 5 93 -33 123 -25 20 -38 20 -807 19 -519 0 -788 -4 -803 -11z"/>
<path d="M710 2553 c-81 -30 -90 -157 -14 -192 18 -8 251 -11 803 -11 765 0
779 0 804 20 38 30 52 80 33 123 -29 70 11 67 -843 66 -422 0 -775 -3 -783 -6z"/>
<path d="M703 2015 c-33 -14 -63 -59 -63 -95 0 -37 30 -81 65 -96 29 -12 160
-14 791 -14 838 0 806 -2 838 65 9 18 16 38 16 45 0 7 -7 27 -16 45 -32 68 1
65 -841 65 -623 -1 -764 -3 -790 -15z"/>
<path d="M693 1478 c-57 -28 -67 -122 -17 -169 l26 -24 779 -3 c868 -3 826 -6
855 65 19 43 5 93 -33 123 -25 20 -38 20 -807 19 -519 0 -788 -4 -803 -11z"/>
<path d="M3019 2741 l-29 -29 0 -472 0 -472 29 -29 29 -29 792 0 792 0 29 29
29 29 0 472 0 472 -29 29 -29 29 -792 0 -792 0 -29 -29z m1461 -501 l0 -320
-640 0 -640 0 0 320 0 320 640 0 640 0 0 -320z"/>
<path d="M3019 1461 c-47 -48 -37 -130 21 -164 41 -25 279 -25 320 0 58 34 68
116 21 164 l-29 29 -152 0 -152 0 -29 -29z"/>
<path d="M3659 1461 c-47 -48 -37 -130 21 -164 41 -25 279 -25 320 0 58 34 68
116 21 164 l-29 29 -152 0 -152 0 -29 -29z"/>
<path d="M4299 1461 c-47 -48 -37 -130 21 -164 41 -25 279 -25 320 0 58 34 68
116 21 164 l-29 29 -152 0 -152 0 -29 -29z"/>
<path d="M3054 1056 c-41 -18 -64 -52 -64 -96 0 -82 53 -110 210 -110 157 0
210 28 210 110 0 45 -23 78 -66 96 -45 19 -247 18 -290 0z"/>
<path d="M3694 1056 c-41 -18 -64 -52 -64 -96 0 -82 53 -110 210 -110 157 0
210 28 210 110 0 45 -23 78 -66 96 -45 19 -247 18 -290 0z"/>
<path d="M4334 1056 c-41 -18 -64 -52 -64 -96 0 -82 53 -110 210 -110 157 0
210 28 210 110 0 45 -23 78 -66 96 -45 19 -247 18 -290 0z"/>
<path d="M3038 623 c-56 -35 -66 -117 -19 -164 l29 -29 152 0 152 0 29 29 c33
33 39 83 15 130 -23 43 -54 51 -199 51 -105 0 -137 -4 -159 -17z"/>
<path d="M3678 623 c-56 -35 -66 -117 -19 -164 l29 -29 152 0 152 0 29 29 c33
33 39 83 15 130 -23 43 -54 51 -199 51 -105 0 -137 -4 -159 -17z"/>
<path d="M4318 623 c-56 -35 -66 -117 -19 -164 l29 -29 152 0 152 0 29 29 c33
33 39 83 15 130 -23 43 -54 51 -199 51 -105 0 -137 -4 -159 -17z"/>
</g>
</svg>
