<?xml version="1.0" standalone="no"?>
<!DOCTYPE svg PUBLIC "-//W3C//DTD SVG 20010904//EN"
 "http://www.w3.org/TR/2001/REC-SVG-20010904/DTD/svg10.dtd">
<svg version="1.0" xmlns="http://www.w3.org/2000/svg"
 width="512.000000pt" height="512.000000pt" viewBox="0 0 512.000000 512.000000"
 preserveAspectRatio="xMidYMid meet">

<g transform="translate(0.000000,512.000000) scale(0.100000,-0.100000)" 
stroke="none">
<path d="M2420 5074 c-247 -53 -451 -225 -539 -454 -115 -298 -27 -632 219
-836 71 -58 215 -128 307 -148 92 -20 224 -20 316 0 92 20 236 90 307 148 113
94 196 219 242 366 19 64 23 95 22 210 0 117 -4 145 -26 212 -69 207 -231 384
-424 462 -131 53 -293 69 -424 40z m284 -154 c110 -28 190 -73 272 -155 226
-223 232 -572 16 -806 -228 -246 -594 -255 -833 -19 -129 126 -186 271 -176
445 9 155 73 292 184 395 150 138 347 189 537 140z"/>
<path d="M2430 4730 c-113 -41 -209 -141 -245 -256 -16 -51 -16 -61 -4 -83 22
-39 56 -52 93 -37 24 9 35 25 53 70 31 80 64 120 125 150 170 85 360 -34 359
-226 -1 -195 -221 -309 -386 -201 -70 46 -135 25 -135 -44 0 -43 32 -76 104
-109 245 -112 530 41 564 302 23 177 -66 344 -223 419 -80 39 -220 45 -305 15z"/>
<path d="M4383 4500 c-46 -19 -56 -75 -20 -114 17 -19 38 -26 100 -35 247 -35
441 -215 492 -457 43 -201 -14 -386 -164 -535 -126 -125 -257 -175 -436 -167
-157 8 -274 60 -384 169 -264 264 -217 694 99 904 67 45 80 60 80 94 0 31 -39
71 -68 71 -75 0 -267 -167 -337 -293 -119 -215 -126 -476 -19 -689 130 -257
373 -408 659 -408 521 0 876 528 680 1012 -63 155 -198 299 -349 373 -125 62
-281 97 -333 75z"/>
<path d="M635 4491 c-385 -62 -655 -391 -632 -771 24 -393 339 -690 732 -690
287 0 531 151 660 408 84 167 98 379 38 555 -43 122 -85 188 -183 288 -71 72
-100 93 -180 132 -52 26 -121 54 -154 62 -73 18 -215 26 -281 16z m276 -172
c96 -31 167 -75 241 -150 77 -78 139 -194 159 -297 15 -81 7 -208 -20 -293
-57 -180 -222 -335 -407 -383 -77 -20 -221 -20 -294 -1 -311 83 -499 400 -420
710 57 221 221 377 455 431 78 18 202 11 286 -17z"/>
<path d="M629 4147 c-107 -30 -204 -114 -253 -217 -29 -60 -31 -73 -31 -170 0
-99 2 -110 32 -171 41 -83 111 -150 201 -192 60 -28 77 -31 157 -31 120 0 184
25 269 105 209 195 157 530 -101 651 -54 26 -82 32 -148 35 -45 1 -100 -3
-126 -10z m193 -153 c93 -31 161 -130 161 -234 -1 -222 -265 -329 -422 -172
-52 53 -71 101 -71 183 1 71 26 125 83 175 72 63 157 80 249 48z"/>
<path d="M4275 4157 c-157 -52 -260 -170 -284 -325 -33 -212 110 -410 328
-453 167 -32 353 67 429 229 24 50 27 69 27 162 0 97 -2 110 -31 170 -41 86
-108 153 -192 193 -55 26 -81 32 -152 34 -52 2 -101 -2 -125 -10z m187 -149
c51 -15 126 -82 149 -133 11 -24 19 -63 19 -100 0 -114 -69 -209 -174 -240
-62 -19 -80 -19 -145 1 -146 43 -216 207 -147 347 54 111 175 162 298 125z"/>
<path d="M2535 3433 c-12 -2 -32 -14 -47 -26 -42 -36 -358 -476 -365 -508 -8
-39 14 -87 48 -104 17 -9 57 -15 104 -15 l75 0 0 -70 c0 -66 2 -73 34 -108
l34 -37 146 0 146 0 32 33 c30 29 33 39 38 105 l5 72 79 3 c48 2 87 9 101 18
30 20 49 67 42 104 -7 32 -344 498 -374 516 -23 14 -72 23 -98 17z m156 -334
l120 -164 -67 -5 c-56 -4 -69 -9 -90 -33 -21 -25 -24 -38 -24 -108 l0 -79 -65
0 -65 0 0 75 c0 78 -12 119 -39 131 -9 4 -44 10 -79 13 l-62 6 122 167 c67 92
124 165 126 164 1 -2 57 -77 123 -167z"/>
<path d="M1300 3042 c-66 -33 -68 -43 -76 -383 l-7 -305 29 -33 c47 -52 85
-51 169 3 l69 45 34 -47 c53 -76 112 -98 173 -66 61 31 195 132 206 155 26 52
20 97 -22 157 l-34 51 52 37 c72 52 87 72 87 121 0 75 -13 82 -329 188 -156
52 -291 95 -300 95 -9 0 -32 -8 -51 -18z m470 -279 c3 -3 -6 -12 -20 -21 -48
-31 -90 -80 -90 -103 0 -13 20 -53 45 -88 25 -36 45 -68 45 -71 0 -4 -24 -23
-53 -43 l-54 -35 -44 65 c-65 97 -87 103 -169 48 -29 -20 -55 -33 -58 -31 -2
3 -1 97 3 210 l7 205 192 -66 c105 -36 193 -68 196 -70z"/>
<path d="M3475 2965 c-312 -105 -325 -113 -325 -188 0 -49 15 -69 87 -121 l52
-37 -34 -51 c-34 -49 -39 -67 -35 -118 3 -42 17 -57 104 -119 100 -71 137 -91
168 -91 38 0 85 32 120 82 l34 47 69 -45 c84 -54 122 -55 169 -3 l29 33 -7
305 c-8 325 -11 344 -60 376 -51 34 -80 28 -371 -70z m284 -388 l1 -99 -32 22
c-106 69 -129 66 -195 -29 l-47 -69 -45 31 c-25 18 -50 35 -55 39 -6 4 9 34
37 76 26 38 47 79 47 91 0 23 -43 72 -90 103 -14 9 -23 18 -20 21 3 2 91 34
195 70 l190 65 6 -112 c4 -61 7 -155 8 -209z"/>
<path d="M2366 2384 c-229 -41 -440 -145 -599 -294 -59 -55 -67 -66 -67 -100
0 -74 81 -97 136 -39 48 51 182 148 256 185 319 160 682 151 991 -26 231 -132
413 -371 484 -635 23 -87 26 -120 27 -255 0 -128 -3 -170 -22 -243 -96 -384
-387 -674 -772 -770 -121 -30 -349 -30 -470 0 -376 94 -668 380 -767 750 -23
85 -26 119 -27 253 0 172 17 267 74 403 17 40 30 84 30 99 0 49 -55 81 -105
62 -22 -9 -67 -101 -99 -204 -174 -550 80 -1150 598 -1412 458 -231 1010 -140
1371 226 337 343 435 833 256 1280 -126 315 -409 577 -732 679 -178 56 -393
72 -563 41z"/>
<path d="M2445 2060 c-341 -53 -618 -302 -706 -635 -25 -95 -30 -286 -10 -380
46 -212 182 -414 360 -534 302 -205 705 -192 996 32 142 109 259 284 306 462
30 113 30 307 0 419 -32 121 -64 184 -97 192 -37 9 -77 -7 -91 -37 -11 -22 -8
-38 17 -111 69 -197 63 -365 -20 -543 -72 -156 -173 -260 -325 -335 -110 -55
-189 -73 -310 -73 -304 0 -565 187 -665 479 -92 267 -3 577 218 760 130 107
274 158 447 158 162 0 268 -33 410 -128 53 -35 76 -45 95 -41 34 8 60 41 60
75 0 61 -189 178 -355 221 -93 23 -244 32 -330 19z"/>
<path d="M2515 1725 c-15 -14 -25 -36 -25 -53 0 -24 -9 -34 -49 -60 -125 -77
-148 -236 -50 -347 25 -29 54 -44 192 -102 90 -38 114 -118 53 -179 -46 -46
-106 -47 -183 -4 -62 35 -81 37 -117 9 -38 -30 -36 -79 6 -114 30 -25 88 -56
131 -69 12 -4 17 -16 17 -41 0 -43 37 -85 75 -85 39 0 75 41 75 87 0 35 4 40
49 65 84 46 131 134 131 242 -1 119 -63 190 -209 241 -97 34 -131 61 -131 105
0 67 66 95 144 60 75 -33 88 -34 119 -10 56 44 25 116 -65 154 -32 13 -38 20
-38 46 0 38 -39 80 -75 80 -14 0 -37 -11 -50 -25z"/>
</g>
</svg>
